#tb 0: 1/25
#media_type 0: video
#codec_id 0: rawvideo
#dimensions 0: 1920x1080
#sar 0: 0/1
0,          0,          0,        1,  6220800, 0x516f10f8
0,          1,          1,        1,  6220800, 0x33d7d007
0,          2,          2,        1,  6220800, 0x3219e14d
0,          3,          3,        1,  6220800, 0xe8b58e23
0,          4,          4,        1,  6220800, 0xc98b1985
0,          5,          5,        1,  6220800, 0x3d848f92
0,          6,          6,        1,  6220800, 0x0e23e254
0,          7,          7,        1,  6220800, 0xeccc02b1
0,          8,          8,        1,  6220800, 0x19d24acf
0,          9,          9,        1,  6220800, 0x16214532
0,         10,         10,        1,  6220800, 0x516f10f8
0,         11,         11,        1,  6220800, 0x33d7d007
0,         12,         12,        1,  6220800, 0x3219e14d
0,         13,         13,        1,  6220800, 0xe8b58e23
0,         14,         14,        1,  6220800, 0xc98b1985
0,         15,         15,        1,  6220800, 0x3d848f92
0,         16,         16,        1,  6220800, 0x0e23e254
0,         17,         17,        1,  6220800, 0xeccc02b1
0,         18,         18,        1,  6220800, 0x19d24acf
0,         19,         19,        1,  6220800, 0x16214532
